<?xml version="1.0" standalone="no"?>
<!DOCTYPE svg PUBLIC "-//W3C//DTD SVG 20010904//EN"
 "http://www.w3.org/TR/2001/REC-SVG-20010904/DTD/svg10.dtd">
<svg version="1.0" xmlns="http://www.w3.org/2000/svg"
 width="1334.000000pt" height="1334.000000pt" viewBox="0 0 1334.000000 1334.000000"
 preserveAspectRatio="xMidYMid meet">
<metadata>
Created by potrace 1.11, written by Peter Selinger 2001-2013
</metadata>
<g transform="translate(0.000000,1334.000000) scale(0.100000,-0.100000)"
fill="#000000" stroke="none">
<path d="M5188 10485 c-2 -2 -48 -6 -103 -9 -55 -4 -113 -9 -130 -11 -16 -2
-52 -7 -80 -10 -217 -25 -650 -126 -785 -182 -8 -3 -22 -7 -30 -9 -77 -16
-528 -221 -680 -309 -407 -237 -815 -575 -1099 -910 -24 -27 -53 -61 -65 -75
-53 -59 -196 -255 -275 -375 -86 -132 -242 -424 -281 -525 -11 -30 -25 -64
-30 -75 -10 -21 -79 -219 -85 -245 -2 -8 -15 -60 -29 -115 -29 -111 -62 -298
-70 -390 -25 -294 -25 -802 -1 -1380 22 -533 23 -1039 1 -1290 -2 -22 -8 -80
-12 -130 -11 -113 -11 -362 -2 -435 53 -394 320 -726 714 -888 60 -25 132 -47
228 -69 12 -2 71 -6 131 -8 194 -6 341 35 520 148 28 17 52 34 55 37 3 3 17
13 32 23 27 17 216 174 254 212 11 11 50 47 85 79 35 32 96 89 135 125 107
100 151 140 244 221 47 41 87 77 90 80 36 38 330 259 455 342 87 57 235 148
241 148 3 0 24 13 47 29 56 38 314 162 407 196 119 42 211 53 442 50 113 -2
210 -5 215 -8 4 -2 44 -8 87 -12 43 -4 87 -8 96 -10 32 -6 91 -15 133 -20 23
-3 53 -7 67 -10 14 -3 39 -8 55 -11 103 -18 287 -58 390 -84 66 -17 129 -33
140 -35 28 -6 225 -65 396 -118 249 -78 326 -92 514 -92 182 0 258 13 399 70
64 26 205 100 216 114 3 4 24 20 47 37 76 55 156 135 208 209 62 89 198 250
264 314 124 121 196 161 364 200 53 12 79 29 116 74 23 28 23 30 7 42 -27 21
-94 26 -461 40 -88 4 -180 8 -205 9 -232 15 -398 68 -456 143 -25 33 -29 47
-29 104 0 147 121 294 318 383 40 18 77 34 82 35 8 1 49 13 95 26 3 1 23 5 45
10 22 4 49 9 60 12 162 33 380 47 715 47 216 -1 543 -9 715 -19 84 -5 310 -14
495 -20 174 -6 368 -15 400 -19 108 -13 146 -20 225 -41 163 -42 254 -49 372
-29 269 47 514 221 631 449 117 226 79 474 -115 775 -56 85 -217 306 -238 325
-6 6 -34 37 -61 70 -205 250 -541 578 -699 685 -27 19 -51 37 -53 42 -2 4 -7
8 -12 8 -4 0 -43 24 -86 53 -214 144 -762 488 -924 579 -25 14 -63 35 -85 48
-22 13 -60 34 -85 48 -25 13 -72 40 -105 60 -74 42 -499 252 -512 252 -5 0
-31 11 -59 23 -27 13 -137 59 -244 102 -107 42 -204 81 -215 86 -103 43 -543
196 -780 270 -336 106 -530 161 -927 263 -97 25 -187 47 -200 50 -13 2 -54 12
-93 21 -61 14 -258 59 -306 70 -9 2 -34 6 -55 9 -22 4 -52 10 -69 15 -16 5
-52 13 -80 17 -27 4 -54 8 -60 10 -9 2 -22 4 -95 18 -14 3 -47 8 -75 11 -27 3
-57 8 -65 10 -8 2 -40 6 -70 10 -30 3 -66 7 -80 9 -84 14 -580 31 -592 21z
m4052 -1618 c8 -2 30 -7 49 -11 155 -37 338 -160 453 -306 29 -37 115 -175
109 -175 -3 0 7 -29 26 -74 13 -34 17 -52 33 -146 11 -65 10 -199 -1 -261 -57
-318 -300 -592 -602 -679 -149 -43 -347 -40 -483 9 -74 26 -183 83 -239 126
-48 36 -163 160 -200 215 -93 141 -144 317 -139 485 1 52 5 109 9 125 48 230
154 402 330 535 108 82 240 141 350 157 22 3 42 7 45 10 5 5 234 -3 260 -10z"/>
</g>
</svg>
